<?xml version="1.0" encoding="utf-8"?>
<!-- Generator: Adobe Illustrator 25.2.0, SVG Export Plug-In . SVG Version: 6.00 Build 0)  -->
<svg version="1.1" id="Layer_1" xmlns="http://www.w3.org/2000/svg" xmlns:xlink="http://www.w3.org/1999/xlink" x="0px" y="0px"
	 viewBox="0 0 4148.2 4135.8" style="enable-background:new 0 0 4148.2 4135.8;" xml:space="preserve">
<style type="text/css">
	.st0{fill:#FFFFFF;}
</style>
<path class="st0" d="M1230.5,1375.8c-5.5-7.2-14.4-8.4-22.1-11.6c-77.3-31.8-150.1-71.6-216.4-122.8c-35-27-68.1-56-96.5-89.9
	c-35.7-42.6-62.7-89.8-73.8-145c-7.9-38.9-7-77.8-1-116.8c19.4-124.5,75.3-231.7,156-327c43.8-51.8,92.9-98.1,146.2-139.9
	c133.1-104.4,276.2-192.2,432.1-258.7c97.6-41.6,198.7-71.7,301.5-96.7c89.4-21.7,179.7-39.2,270.9-51.7
	c106.1-14.5,212.7-19.8,319.4-12.1c112.7,8.1,223.1,28.8,329.2,69.3c89.3,34,162.9,88.6,219.9,165.4c23.6,31.8,41,66.5,48.9,105.7
	c8.8,43.5,2.9,85.7-10.2,127.3c-15.2,48.4-41.6,90.5-74,129.1c-42.4,50.6-92.4,92.9-146.2,130.9
	c-106.1,74.8-223.3,125.2-348.5,157.6c-46.4,12-93,23.7-141.3,25.2c-11.7,0.3-23.6,0-35.1-2c-14.2-2.5-18.6-14.4-11.1-26.6
	c7.5-12.2,18.9-19.6,31.6-25.4c21.5-9.9,44.4-15,67.8-18.1c50.8-6.5,100.6-17.3,146.3-41c167.9-86.7,275.2-219.5,307.1-408.3
	c10.7-63.4-5.6-120.1-47.5-169.5c-50.6-59.8-115-96.2-190.1-115.2c-65.9-16.7-133.1-22.7-200.8-22.8
	c-140.6-0.2-279.2,17.2-416.1,48.9c-119.6,27.7-235.6,65.6-345.7,120.4c-124.4,61.9-238.2,139.2-339.8,234.1
	c-64.2,59.9-118.7,127.5-157.5,206.8c-34.1,69.6-53,142.9-52.3,220.8c1.1,122.6,54.9,215.7,158.1,280.8
	c30.8,19.4,64.4,32.8,98.9,44.3c91,30.4,183.4,55.8,277.1,76.6c44.9,10,89.3,22.6,131.3,41.7c19.5,8.9,38.1,19.9,56.3,31.3
	c13.3,8.3,24.2,19.8,32.3,33.6c18.3,31.3,10.7,67.2-18.9,88.3c-18.9,13.4-40.6,19.7-63.1,22.2c-25.2,2.8-50.7,4.9-76.1,4.8
	c-96.9-0.5-193.9-2-290.8-3.3c-70.5-0.9-141-0.7-211.4,4.7c-106.8,8.1-211.6,26.4-313.5,60c-178.4,58.9-321.8,167.2-438.5,312.6
	c-56.2,70.1-100.1,147.2-129.1,232.4c-29.7,87.2-42.8,176.8-38.4,268.7c3.6,75.9,20.1,148.9,49.9,219.2
	c35,82.6,89.4,148.8,162,200.8c84.6,60.6,177.9,102.3,278.5,127.8c77,19.5,155.4,30.4,234.6,36.7c62.6,5,125.2,5.8,187.8,5.6
	c123.9-0.5,246.2-15.8,366.7-43.7c299.3-69.3,578.4-187.4,837-353.3c98.3-63.1,190.1-134.8,272.5-217.8
	c35.2-35.5,67.6-73.5,94.8-115.6c18.1-28.1,33.2-57.6,43.5-89.5c8.8-27.4,12.4-55.3,10.4-84c-2.6-36.6-20.9-62.6-54-77.6
	c-11.5-5.2-24-8.1-36.1-12c-18.6-6.1-37.5-11.3-55.6-18.5c-8.8-3.5-17.3-9.6-23.8-16.5c-10.8-11.6-6.2-27.9,8.9-32.9
	c7.3-2.4,15.3-3.5,23-3.6c46.9-0.8,91.4,8,132.1,32.8c28.5,17.4,55.7,36.4,79.3,60.2c55,55.6,75,121.9,62.5,198.9
	c-8.6,53.1-29.1,101.4-57.2,146.7c-35.3,57-79.7,106.5-128.5,152.2c-92.6,86.9-196.1,158.8-306.6,221.1
	c-127.5,71.8-261.6,128.8-400.1,175.3c-157.9,53-318.8,94.7-483.2,122.6c-161.7,27.4-324.6,37.7-488.5,32.7
	c-89.1-2.7-178-8-266.4-19.6c-126.8-16.7-250-46.3-367.1-99c-97.5-43.8-185.3-101.5-258-180.6C91.9,2693.9,38,2589.9,10.1,2472.2
	c-9.6-40.4-12.1-81.5-8.5-122.6c8.2-92.1,26.4-182.1,65.2-266.8c70.6-154.2,172.1-283.7,307-387.2
	c167.1-128.3,352.8-216.7,557.4-266.5c78.1-19,156.6-34.9,236.5-44c16.5-1.9,33.2-2.4,49.8-3.9
	C1221.9,1381,1227.4,1382.3,1230.5,1375.8z"/>
<path class="st0" d="M3106.9,2504.7c2.1,4.8,2.6,6.8,3.8,8.3c54.6,71.5,85.8,153.1,104.6,240.2c3.7,17.2,7.4,34.4,11.5,51.6
	c1.3,5.5,3.9,10.7,5.9,16.2c23.9,3.4,45.6-2,67.2-8.7c24.5-7.6,46.7-20,67.9-34.4c29.3-19.9,55.5-43.4,79.8-69.1
	c69.6-73.6,130.5-153.5,180.1-242.1c38.3-68.3,75.3-137.3,109.1-207.9c11-22.9,22.7-45.5,34.4-68.1c3.6-6.9,7.7-13.7,12.6-19.8
	c8.5-10.4,19.4-12.6,31.5-7.4c11.9,5.1,17.2,14.8,14.3,28.6c-1.6,7.6-4.4,15-7.6,22.1c-52.1,118.4-108.9,234.3-177.3,344.2
	c-44.5,71.7-93.3,140.1-152.6,200.6c-26.8,27.4-55.4,52.6-87.2,73.9c-45.4,30.4-94.1,52.1-149.5,55.9c-4.8,0.3-9.4,1.9-15.5,3.2
	c-0.5,7.1-1.4,13.7-1.3,20.2c0.5,34.3,0.8,68.5,2,102.8c3.4,92.5-6.2,183.7-24.5,274.2c-19.5,96.9-40.4,193.5-71.9,287.4
	c-49.4,147.2-122.2,281.6-222.3,400.7c-41.3,49.1-88.7,91.2-145.9,121.2c-66.7,35-136.9,45.9-210.6,29.7
	c-71.6-15.8-114.2-61.7-126.3-133.7c-5.6-33-5.9-66.1-2.9-99.5c7.3-81.3,25.4-160.3,46.7-238.8c42-155,94.9-306.5,153-456.1
	c50.7-130.4,104.1-259.7,156.3-389.5c3.6-9,7.4-18,11.3-27.8c-5-9.6-9.8-19.1-14.8-28.6c-20.2-38-30.8-77.8-26.9-121.4
	c2.9-32.3,6.9-64.1,16.7-95.1c17.8-55.8,58.9-88.6,109.5-111.5c10.2-4.6,22.9-4.2,34.4-4.9c11.6-0.8,23.3-0.2,36.4-0.2
	c4.8-10.3,9.9-20.8,14.6-31.3c147.4-330.7,298.6-659.7,457.8-984.8c88.2-180.2,179.9-358.6,273.7-535.9c20.6-39,42.9-77,70.4-111.6
	c13.4-16.8,27.5-33.3,42.9-48.2c60.6-58.7,133.7-78.2,216.1-66.4c34.9,5,69.7,10.1,104.5,15.3c2.6,0.4,5,1.9,9,3.6
	c-2.8,3.9-4.6,7.2-7.1,9.8c-63.1,64.7-116.8,137-168.3,211c-86.1,123.9-164.3,252.7-239.8,383.2
	c-228,394.3-431.9,800.9-617.4,1216.8C3112.5,2490,3109.9,2497.3,3106.9,2504.7z M2956.2,2847.9c-4.6,9.3-8,15.1-10.4,21.2
	c-11.6,29.1-23,58.2-34.2,87.4c-71.6,186.2-140.7,373.2-198.6,564.2c-31.5,103.9-60.3,208.5-76.7,316.1
	c-5.8,37.7-10.6,75.7-8.4,113.9c1,17.4,3.1,35.3,8,51.9c10.8,36.2,37.8,49.7,73.1,36.2c16.2-6.2,31.9-15.3,45.6-25.9
	c17.7-13.7,34.2-29.3,49.5-45.7c81.8-87.3,144.4-187.2,192.3-296.5c65.5-149.3,111.1-304.8,141.3-464.8
	c16.7-88.6,26.2-178,25.2-268.3c-0.1-10.4,2.2-21.3-4.1-33.6C3086.8,2907.1,3018.6,2894.7,2956.2,2847.9z M3154.8,2836.6
	c0-8.6,0.6-13.5-0.1-18.2c-3.3-22.2-6.1-44.4-10.6-66.4c-10.9-53.1-30.4-102.7-61.9-147.2c-3.1-4.4-7.5-7.9-13.4-13.8
	c-27.6,60.6-53.1,119.3-77.7,176.8c15,25.9,25.1,36.9,44.9,47.9C3072.3,2835.7,3111.5,2838.8,3154.8,2836.6z"/>
</svg>
